<mxfile host="app.diagrams.net" modified="2023-06-02T17:49:27.042Z" agent="Mozilla/5.0 (X11; Linux x86_64; rv:109.0) Gecko/20100101 Firefox/112.0" version="21.3.7" etag="fQvYZ2PI_GX8WtuyejBC" type="github">
  <diagram name="Page-1" id="-b-T3l_NXwwbFZ9Ic45L">
    <mxGraphModel>
      <root>
        <mxCell id="0" />
        <mxCell id="1" parent="0" />
      </root>
    </mxGraphModel>
  </diagram>
</mxfile>
